<svg width="100" height="100" xmlns="http://www.w3.org/2000/svg">
  <defs>
    <pattern id="ai-pattern" patternUnits="userSpaceOnUse" width="100" height="100">
      <circle cx="10" cy="10" r="1.5" fill="#fff" />
      <circle cx="30" cy="10" r="1.5" fill="#fff" />
      <circle cx="50" cy="10" r="1.5" fill="#fff" />
      <circle cx="70" cy="10" r="1.5" fill="#fff" />
      <circle cx="90" cy="10" r="1.5" fill="#fff" />
      
      <circle cx="20" cy="20" r="1.5" fill="#fff" />
      <circle cx="40" cy="20" r="1.5" fill="#fff" />
      <circle cx="60" cy="20" r="1.5" fill="#fff" />
      <circle cx="80" cy="20" r="1.5" fill="#fff" />
      
      <circle cx="10" cy="30" r="1.5" fill="#fff" />
      <circle cx="30" cy="30" r="1.5" fill="#fff" />
      <circle cx="50" cy="30" r="1.5" fill="#fff" />
      <circle cx="70" cy="30" r="1.5" fill="#fff" />
      <circle cx="90" cy="30" r="1.5" fill="#fff" />
      
      <circle cx="20" cy="40" r="1.5" fill="#fff" />
      <circle cx="40" cy="40" r="1.5" fill="#fff" />
      <circle cx="60" cy="40" r="1.5" fill="#fff" />
      <circle cx="80" cy="40" r="1.5" fill="#fff" />
      
      <circle cx="10" cy="50" r="1.5" fill="#fff" />
      <circle cx="30" cy="50" r="1.5" fill="#fff" />
      <circle cx="50" cy="50" r="1.5" fill="#fff" />
      <circle cx="70" cy="50" r="1.5" fill="#fff" />
      <circle cx="90" cy="50" r="1.5" fill="#fff" />
      
      <circle cx="20" cy="60" r="1.5" fill="#fff" />
      <circle cx="40" cy="60" r="1.5" fill="#fff" />
      <circle cx="60" cy="60" r="1.5" fill="#fff" />
      <circle cx="80" cy="60" r="1.5" fill="#fff" />
      
      <circle cx="10" cy="70" r="1.5" fill="#fff" />
      <circle cx="30" cy="70" r="1.5" fill="#fff" />
      <circle cx="50" cy="70" r="1.5" fill="#fff" />
      <circle cx="70" cy="70" r="1.5" fill="#fff" />
      <circle cx="90" cy="70" r="1.5" fill="#fff" />
      
      <circle cx="20" cy="80" r="1.5" fill="#fff" />
      <circle cx="40" cy="80" r="1.5" fill="#fff" />
      <circle cx="60" cy="80" r="1.5" fill="#fff" />
      <circle cx="80" cy="80" r="1.5" fill="#fff" />
      
      <circle cx="10" cy="90" r="1.5" fill="#fff" />
      <circle cx="30" cy="90" r="1.5" fill="#fff" />
      <circle cx="50" cy="90" r="1.5" fill="#fff" />
      <circle cx="70" cy="90" r="1.5" fill="#fff" />
      <circle cx="90" cy="90" r="1.5" fill="#fff" />
      
      <!-- Neural network lines -->
      <line x1="30" y1="30" x2="50" y2="50" stroke="#fff" stroke-width="0.5" stroke-opacity="0.3" />
      <line x1="50" y1="50" x2="70" y2="30" stroke="#fff" stroke-width="0.5" stroke-opacity="0.3" />
      <line x1="30" y1="70" x2="50" y2="50" stroke="#fff" stroke-width="0.5" stroke-opacity="0.3" />
      <line x1="50" y1="50" x2="70" y2="70" stroke="#fff" stroke-width="0.5" stroke-opacity="0.3" />
      
      <line x1="10" y1="50" x2="30" y2="30" stroke="#fff" stroke-width="0.5" stroke-opacity="0.3" />
      <line x1="70" y1="30" x2="90" y2="50" stroke="#fff" stroke-width="0.5" stroke-opacity="0.3" />
      <line x1="10" y1="50" x2="30" y2="70" stroke="#fff" stroke-width="0.5" stroke-opacity="0.3" />
      <line x1="70" y1="70" x2="90" y2="50" stroke="#fff" stroke-width="0.5" stroke-opacity="0.3" />
    </pattern>
  </defs>
  <rect width="100" height="100" fill="url(#ai-pattern)" />
</svg> 